<svg xmlns="http://www.w3.org/2000/svg" viewBox="0 0 120 120" width="240" height="240">
  <defs>
    <linearGradient id="pouch" x1="0" y1="0" x2="0" y2="1">
      <stop offset="0%" stop-color="#f3b0b8"/><stop offset="100%" stop-color="#e2737f"/>
    </linearGradient>
  </defs>
  <!-- 주머니 몸통 -->
  <path d="M60 34 C 26 38 20 70 28 88 C 36 104 84 104 92 88 C 100 70 94 38 60 34 Z" fill="url(#pouch)" stroke="#a8434f" stroke-width="3"/>
  <!-- 주둥이 주름 -->
  <path d="M46 32 Q60 24 74 32 Q72 38 60 39 Q48 38 46 32 Z" fill="#e2737f" stroke="#a8434f" stroke-width="3" stroke-linejoin="round"/>
  <path d="M52 30 L50 22 M60 29 L60 20 M68 30 L70 22" stroke="#a8434f" stroke-width="3" stroke-linecap="round"/>
  <!-- 매듭 -->
  <circle cx="60" cy="40" r="5" fill="#f0d27e" stroke="#b8923a" stroke-width="2.4"/>
  <!-- 福 느낌의 금색 마름모 -->
  <rect x="51" y="62" width="18" height="18" rx="3" transform="rotate(45 60 71)" fill="#f0d27e" stroke="#b8923a" stroke-width="2.4"/>
  <!-- 행복한 눈/미소 -->
  <path d="M42 58 Q46 53 50 58" fill="none" stroke="#7c2730" stroke-width="3.2" stroke-linecap="round"/>
  <path d="M70 58 Q74 53 78 58" fill="none" stroke="#7c2730" stroke-width="3.2" stroke-linecap="round"/>
  <!-- 볼터치 -->
  <circle cx="40" cy="66" r="4" fill="#ffd9c4" opacity="0.9"/><circle cx="80" cy="66" r="4" fill="#ffd9c4" opacity="0.9"/>
  <!-- 반짝이 -->
  <path d="M98 26 l2.4 5.5 5.5 2.4 -5.5 2.4 -2.4 5.5 -2.4 -5.5 -5.5 -2.4 5.5 -2.4 Z" fill="#e6c35c"/>
</svg>
